<svg xmlns="http://www.w3.org/2000/svg" viewBox="0 0 150 150"><style type="text/css">  
   .st0{fill:#333333;}
   .st1{fill:#FF615E;}
   .st2{fill:#993131;}
 </style><path class="st0" d="M146.9 130.9L76 15.8c-0.8-1.3-2.6-1.3-3.4 0C62.8 32.1 12.5 114.1 2.2 131c-0.8 1.3 0.2 3 1.7 3l29.4 0h14.9c0.7 0 1.3-0.4 1.7-1 4.6-7.6 17.7-33.4 22.4-41.2 0.9-1.5 2.5-1.5 3.4 0l23.3 41.3c0.4 0.6 1 0.9 1.7 0.9h44.4C146.8 134 147.8 132.3 146.9 130.9zM69.3 85.8l-23.8 42.4c-0.1 0.1-0.2 0.2-0.3 0.1 -1.2-0.7-7.4-4.8-14.2-24.3 -0.1-0.2 0.1-0.3 0.2-0.3 2.3-0.1 16-1.3 37.8-18.2C69.2 85.3 69.5 85.5 69.3 85.8z"/></svg>